HIERARCHY
ROOT Hips
{
	OFFSET 0.0000 0.0000 0.0000
	CHANNELS 6 Xposition Yposition Zposition Zrotation Xrotation Yrotation
	JOINT Spine1
	{
		OFFSET -0.0137 5.0038 -0.0537
		CHANNELS 3 Zrotation Xrotation Yrotation
		JOINT Spine2
		{
			OFFSET -0.0000 7.1253 -0.0298
			CHANNELS 3 Zrotation Xrotation Yrotation
			JOINT Chest
			{
				OFFSET -0.0000 7.5501 -0.8160
				CHANNELS 3 Zrotation Xrotation Yrotation
				JOINT Neck1
				{
					OFFSET -0.1817 26.3113 -0.5533
					CHANNELS 3 Zrotation Xrotation Yrotation
					JOINT Neck2
					{
						OFFSET -0.0000 7.7094 2.3026
						CHANNELS 3 Zrotation Xrotation Yrotation
						JOINT Head
						{
							OFFSET -0.0000 6.1289 1.9537
							CHANNELS 3 Zrotation Xrotation Yrotation
							JOINT Jaw
							{
								OFFSET 0.0026 0.4756 3.0949
								CHANNELS 3 Zrotation Xrotation Yrotation
								End Site
								{
									OFFSET 0.0 1.0 0.0
								}
							}
							JOINT LeftEye
							{
								OFFSET 3.2064 5.3802 7.5869
								CHANNELS 3 Zrotation Xrotation Yrotation
								End Site
								{
									OFFSET 0.0 1.0 0.0
								}
							}
							JOINT RightEye
							{
								OFFSET -3.2224 5.3619 7.5582
								CHANNELS 3 Zrotation Xrotation Yrotation
								End Site
								{
									OFFSET 0.0 1.0 0.0
								}
							}
						}
					}
				}
				JOINT LeftShoulder
				{
					OFFSET 1.6217 23.2372 5.1134
					CHANNELS 3 Zrotation Xrotation Yrotation
					JOINT LeftArm
					{
						OFFSET 14.9198 0.0000 -5.5023
						CHANNELS 3 Zrotation Xrotation Yrotation
						JOINT LeftForeArm
						{
							OFFSET 28.7393 0.0000 -0.0026
							CHANNELS 3 Zrotation Xrotation Yrotation
							JOINT LeftHand
							{
								OFFSET 27.0940 -0.0000 0.0026
								CHANNELS 3 Zrotation Xrotation Yrotation
								JOINT LeftHandThumbEnd
								{
									OFFSET 12.2686 -3.2202 4.8331
									CHANNELS 3 Zrotation Xrotation Yrotation
									End Site
									{
										OFFSET 0.0 1.0 0.0
									}
								}
								JOINT LeftHandMiddleEnd
								{
									OFFSET 19.0120 -0.3129 -0.0340
									CHANNELS 3 Zrotation Xrotation Yrotation
									End Site
									{
										OFFSET 0.0 1.0 0.0
									}
								}
							}
						}
					}
				}
				JOINT RightShoulder
				{
					OFFSET -1.3801 23.1803 5.2142
					CHANNELS 3 Zrotation Xrotation Yrotation
					JOINT RightArm
					{
						OFFSET -15.0372 0.0000 -5.5456
						CHANNELS 3 Zrotation Xrotation Yrotation
						JOINT RightForeArm
						{
							OFFSET -28.7366 0.0000 -0.0026
							CHANNELS 3 Zrotation Xrotation Yrotation
							JOINT RightHand
							{
								OFFSET -27.1336 -0.0000 0.0026
								CHANNELS 3 Zrotation Xrotation Yrotation
								JOINT RightHandThumbEnd
								{
									OFFSET -12.2642 -3.2115 4.8040
									CHANNELS 3 Zrotation Xrotation Yrotation
									End Site
									{
										OFFSET 0.0 1.0 0.0
									}
								}
								JOINT RightHandMiddleEnd
								{
									OFFSET -19.0006 -0.3066 -0.0316
									CHANNELS 3 Zrotation Xrotation Yrotation
									End Site
									{
										OFFSET 0.0 1.0 0.0
									}
								}
							}
						}
					}
				}
			}
		}
	}
	JOINT LeftLeg
	{
		OFFSET 10.0432 -8.4345 2.5957
		CHANNELS 3 Zrotation Xrotation Yrotation
		JOINT LeftShin
		{
			OFFSET -0.0000 -43.2218 -0.8029
			CHANNELS 3 Zrotation Xrotation Yrotation
			JOINT LeftFoot
			{
				OFFSET 0.0000 -42.1551 -3.4815
				CHANNELS 3 Zrotation Xrotation Yrotation
				JOINT LeftToeBase
				{
					OFFSET 0.0000 -5.0595 13.2315
					CHANNELS 3 Zrotation Xrotation Yrotation
					End Site
					{
						OFFSET 0.0 1.0 0.0
					}
				}
			}
		}
	}
	JOINT RightLeg
	{
		OFFSET -10.0473 -8.2953 2.6203
		CHANNELS 3 Zrotation Xrotation Yrotation
		JOINT RightShin
		{
			OFFSET 0.0000 -43.3622 -0.8056
			CHANNELS 3 Zrotation Xrotation Yrotation
			JOINT RightFoot
			{
				OFFSET 0.0000 -42.1174 -3.4784
				CHANNELS 3 Zrotation Xrotation Yrotation
				JOINT RightToeBase
				{
					OFFSET -0.0000 -5.0796 13.2842
					CHANNELS 3 Zrotation Xrotation Yrotation
					End Site
					{
						OFFSET 0.0 1.0 0.0
					}
				}
			}
		}
	}
}
MOTION
Frames: 5
Frame Time: 0.033333
137.5189 89.6995 -94.9554 1.3332 0.3883 2.2004 -1.0967 6.2483 -0.0020 -0.6493 -2.3936 0.1365 1.1706 11.6962 -1.4385 14.8688 12.1662 -1.7952 -3.7221 -4.2754 -11.5571 2.3958 -18.7245 -15.0512 0.0088 -0.0139 0.0072 0.6177 -10.5552 -3.8554 -0.5982 -10.5887 3.8374 0.2756 8.6822 -9.6650 -35.9544 -24.5749 -3.6784 0.7294 0.6410 -74.7543 18.1929 3.1646 17.9795 -14.6152 11.5865 16.4507 -60.0284 1.4353 2.0175 9.4455 7.3988 13.8660 60.1135 -29.0931 -42.8635 0.5413 -0.6140 83.4596 -21.9902 9.2221 16.5100 14.8501 7.4175 -16.9420 49.5130 -3.8361 -5.1163 16.6872 -27.5180 3.0780 -0.6129 46.3297 -1.1162 -18.9219 -19.4021 -0.5419 1.6461 -1.2756 -1.8638 -17.9251 -34.2023 -17.0908 0.7644 51.2285 1.1735 15.8864 -14.5179 -0.9929 -1.4432 -1.9965 1.0773
137.5340 89.8118 -95.5962 1.5193 0.3467 2.2592 -0.9648 6.3290 0.0020 -0.5871 -2.3481 0.0968 1.2073 11.7525 -1.4986 14.4485 12.1456 -1.6891 -3.6769 -4.2804 -11.5534 2.4597 -18.9649 -15.0964 0.0099 -0.0165 0.0160 0.6233 -10.5617 -3.8488 -0.6020 -10.5978 3.8493 0.3075 8.7338 -9.5795 -36.7352 -24.9615 -3.2705 0.7449 0.7071 -74.7038 18.1390 2.9813 17.7686 -14.7808 11.4966 16.4288 -60.0049 1.4229 2.0235 9.0903 7.4695 13.9640 59.8461 -29.0478 -42.7280 0.5189 -0.6111 83.6906 -21.7374 8.8512 16.2543 14.8732 7.4066 -16.9296 49.5347 -3.8436 -5.1160 16.2900 -27.9548 3.5912 -0.6393 46.0269 -1.1439 -18.6061 -18.7096 -0.8290 1.6483 -1.3080 -1.8540 -17.9692 -34.5220 -17.2959 0.8052 50.6872 1.2096 15.7233 -14.2306 -0.7719 -1.4398 -1.7200 1.0768
137.5266 89.8920 -96.2875 1.6889 0.3410 2.3310 -0.7998 6.4058 0.0108 -0.5294 -2.3013 0.0728 1.2508 11.8038 -1.5364 13.9816 12.0497 -1.5646 -3.6419 -4.2834 -11.5930 2.5682 -19.2297 -15.2028 0.0106 -0.0117 0.0141 0.6317 -10.5649 -3.8517 -0.6101 -10.6051 3.8502 0.3239 8.6801 -9.5468 -37.4203 -25.2041 -2.9808 0.7993 0.7593 -74.7576 17.9145 2.5461 17.5112 -14.8513 11.4159 16.3909 -60.0067 1.4392 2.0288 8.7064 7.5990 14.1130 59.6083 -29.1061 -42.6133 0.5470 -0.6835 83.8675 -21.4711 8.3387 16.0527 14.9061 7.4001 -16.9523 49.6060 -3.8467 -5.1341 15.9014 -28.5085 4.2013 -0.6427 45.7734 -1.1357 -18.2580 -17.9365 -1.2354 1.6486 -1.2987 -1.8570 -17.9310 -34.9742 -17.6188 0.7934 50.2499 1.1629 15.4640 -13.8561 -0.5188 -1.4394 -1.4547 1.0653
137.5579 89.9279 -97.0384 1.8407 0.3895 2.4499 -0.5993 6.4701 0.0078 -0.4645 -2.2470 0.0695 1.3132 11.8506 -1.5721 13.4389 11.9035 -1.4647 -3.5960 -4.2804 -11.6323 2.7503 -19.6168 -15.3808 0.0083 -0.0045 0.0186 0.6339 -10.5494 -3.8464 -0.6180 -10.5859 3.8560 0.2880 8.5605 -9.5567 -38.0207 -25.4784 -2.7593 0.8486 0.8151 -74.9061 17.6710 1.9819 17.2857 -14.8313 11.3632 16.3639 -60.0600 1.4636 2.0392 8.2719 7.7591 14.3129 59.3908 -29.2464 -42.5925 0.5849 -0.7687 84.0140 -21.1444 7.5703 15.8597 14.9624 7.4023 -16.9829 49.7710 -3.8464 -5.1589 15.5005 -29.2376 4.9853 -0.6256 45.5719 -1.1013 -17.8907 -17.0621 -1.7583 1.6475 -1.2201 -1.8595 -17.8316 -35.5988 -18.1394 0.7928 49.9141 1.1286 15.0657 -13.3925 -0.1893 -1.4382 -1.1516 1.0432
137.6349 89.9704 -97.8306 2.0192 0.5183 2.6573 -0.3838 6.5256 -0.0063 -0.3968 -2.2298 0.0453 1.3591 11.9074 -1.6351 12.9042 11.6958 -1.3945 -3.5897 -4.2884 -11.6670 3.0000 -20.0669 -15.6504 0.0045 -0.0072 0.0348 0.6316 -10.5280 -3.8251 -0.6240 -10.5586 3.8695 0.1695 8.4459 -9.5573 -38.4726 -25.8601 -2.6085 0.8993 0.9065 -75.0762 17.5692 1.5506 17.1225 -14.7774 11.2832 16.3317 -59.9935 1.4554 2.0342 7.8440 7.8796 14.5899 59.0612 -29.4287 -42.6042 0.6512 -0.8417 84.0746 -20.8783 6.7264 15.6050 14.9699 7.3880 -16.9933 49.9043 -3.8400 -5.1694 14.9851 -30.1718 6.1658 -0.6051 45.3945 -1.0799 -17.5051 -16.1379 -2.5328 1.6432 -1.1397 -1.8579 -17.7370 -36.4141 -18.8121 0.7900 49.6738 1.0920 14.6022 -12.8136 0.2868 -1.4343 -0.8730 1.0129
